<?xml version="1.0" encoding="utf-8"?>
<!-- Generator: Adobe Illustrator 18.1.1, SVG Export Plug-In . SVG Version: 6.00 Build 0)  -->
<!DOCTYPE svg PUBLIC "-//W3C//DTD SVG 1.1//EN" "http://www.w3.org/Graphics/SVG/1.1/DTD/svg11.dtd">
<svg version="1.1" id="Layer_1" xmlns="http://www.w3.org/2000/svg" xmlns:xlink="http://www.w3.org/1999/xlink" x="0px" y="0px"
	 viewBox="0 0 79 79" enable-background="new 0 0 79 79" xml:space="preserve">
<circle fill="#2BBDBE" cx="39.5" cy="39.5" r="39.5"/>
<g id="WYX1bv.tif">
	<g>
		<path fill="#FFFFFF" d="M42.6,61.4c1.6-5.9,0.9-11.7,0.2-17.4c-0.3-2.1-2-2.8-3.7-3.5c-3.5-1.5-7.3-1.8-11.1-1.9
			c-2.5-0.1-5.1,0-8,0c0.4-2.3,0.7-4.4,1.1-6.5c0.7-3.2,2-6.2,4-8.9c1.6-2.2,3.8-3.2,6.5-3.4c9-0.7,15.2,4.7,16,13.7
			c0.8,8.7,0.5,17.3-0.5,26c-0.1,0.7-0.3,1.1-1,1.2c-0.9,0.2-1.8,0.5-2.8,0.7C43.2,61.4,43,61.4,42.6,61.4z M27.3,31.3
			c3.2,0.2,6.2,0.4,9.4,0.7c0.1-1,0.2-1.7,0.2-2.5c0-2.2,0-2.1-2.1-2.3c-0.3,0-0.7-0.1-1-0.1c-2-0.1-4-0.2-6.1-0.3
			C27.5,28.3,27.4,29.7,27.3,31.3z"/>
		<path fill="#FFFFFF" d="M40.9,52c-0.4,2.9-0.8,6.1-1.2,9.4c-0.1,1-0.6,1.3-1.6,1.3c-5.4,0.3-10.7-0.5-15.8-2c-2.4-0.7-3.7-2-4-4.6
			c-0.5-5-0.4-10,0.3-15c0.1-0.8,0.4-1.2,1.3-1.1c3.2,0.2,6.4,0.2,9.5,0.6c2.8,0.4,5.6,1.2,8.5,1.8c1.3,0.3,2.1,1.3,2.3,2.6
			C40.4,47.2,40.6,49.4,40.9,52z"/>
		<path fill="#FFFFFF" d="M32,18.3c1.8-0.2,3.6-0.5,5.3-0.5c2,0.1,4.1,0.3,6,0.8c4.8,1.3,7.5,4.7,8.9,9.2c0.7,2.2,1.2,4.5,1.4,6.8
			c0.8,7.1,0.3,14.1-1.2,21c-0.4,2-2.1,3.3-4.1,3.5c0.2-5.5,0.6-11.1,0.7-16.6c0-4-0.2-8-0.8-11.9c-1.1-7-6.9-11.8-14-12.1
			c-0.7,0-1.5,0-2.2,0C32.1,18.6,32.1,18.4,32,18.3z"/>
		<path fill="#FFFFFF" d="M38,16.7c2.4-1.4,4.5-1.3,6.7-0.5c1,0.4,1.9,0.5,3,0.4c3.8-0.3,6.8,1.3,9.1,4.1c2.5,3,3.6,6.6,4.2,10.4
			c0.8,5.8,0.4,11.6-1.9,17.1c-1,2.5-2.4,4.7-4.4,6.5c-0.2,0.2-0.4,0.3-0.8,0.6c0.2-1.5,0.4-2.7,1.3-3.8c2.4-2.9,3.2-6.5,3.6-10.1
			c0.6-5.3,0.4-10.5-1.4-15.6c-0.2-0.7-0.6-1.4-0.9-2c-1.4-2.4-2.8-2.9-5.4-2.1c-0.3,0.1-0.8,0.1-0.9-0.1c-3-3.3-6.9-4.5-11.1-4.8
			C38.7,16.8,38.5,16.7,38,16.7z"/>
	</g>
</g>
</svg>
